C:\Users\menth\Documents\Programmas\PredSimResults\H0918v3\H0918v3_v1.mot
version=1
nRows=16
nColumns=28
inDegrees=yes
endheader
                time	         pelvis_tilt	           pelvis_tx	           pelvis_ty	       hip_flexion_r	        knee_angle_r	       ankle_angle_r	       hip_flexion_l	        knee_angle_l	       ankle_angle_l	hamstrings_r/activation	bifemsh_r/activation	glut_max_r/activation	iliopsoas_r/activation	rect_fem_r/activation	  vasti_r/activation	gastroc_r/activation	 soleus_r/activation	tib_ant_r/activation	hamstrings_l/activation	bifemsh_l/activation	glut_max_l/activation	iliopsoas_l/activation	rect_fem_l/activation	  vasti_l/activation	gastroc_l/activation	 soleus_l/activation	tib_ant_l/activation	
          1.72177496	         -8.57807434	          1.89395246	          0.90748842	        -12.10010708	         -9.42517852	         -4.72571387	         30.73026607	        -14.22631301	         -3.70954619	          0.04999999	          0.09260970	          0.04999999	          0.52233630	          0.05345813	          0.04999999	          0.56172407	          0.51085533	          0.04999999	          0.07807737	          0.04999999	          0.10137882	          0.04999999	          0.07096076	          0.06932065	          0.21893277	          0.13178479	          0.54681786	
          1.73325346	         -8.44658636	          1.90946989	          0.90626149	        -11.77922373	        -11.91121498	         -5.62846421	         30.11827802	        -14.25803347	         -4.09189613	          0.04999999	          0.07773781	          0.04999999	          0.43845601	          0.04999999	          0.04999999	          0.50076891	          0.47369910	          0.04999999	          0.07356057	          0.04999999	          0.13860913	          0.04999999	          0.05956541	          0.10045384	          0.19333418	          0.11062190	          0.67042092	
          1.74473196	         -8.29039951	          1.92530009	          0.90498267	        -11.21456900	        -14.85781620	         -6.78766459	         29.47816784	        -15.06202571	         -3.98832863	          0.04999999	          0.06525415	          0.04999999	          0.36804579	          0.04999999	          0.04999999	          0.42035206	          0.39762930	          0.04999999	          0.07192537	          0.04999999	          0.19453557	          0.04999999	          0.04999999	          0.08432228	          0.22488067	          0.15705865	          0.61025409	
          1.75621046	         -8.12450363	          1.94125616	          0.90377515	        -10.37523574	        -18.22680199	         -8.36513881	         28.86218355	        -16.25648537	         -3.05648900	          0.06762067	          0.05477520	          0.14568538	          0.30894251	          0.04999999	          0.04999999	          0.35284909	          0.33377531	          0.04999999	          0.08541503	          0.05344483	          0.26081027	          0.04999999	          0.04999999	          0.15556713	          0.23374739	          0.18740472	          0.51225537	
          1.76768896	         -7.96925470	          1.95707095	          0.90294413	         -9.25355316	        -21.90221597	        -10.53680632	         28.32316643	        -17.59224759	         -1.58686299	          0.08072284	          0.04999999	          0.12229024	          0.25933044	          0.04999999	          0.04999999	          0.29618620	          0.28017542	          0.25358268	          0.09944896	          0.04999999	          0.31699140	          0.04999999	          0.04999999	          0.26048630	          0.25438847	          0.23095289	          0.42999395	
          1.77916746	         -7.84165282	          1.97252645	          0.90264088	         -7.87910499	        -25.75696332	        -13.24889669	         27.80144370	        -18.84141195	         -0.22113830	          0.09041449	          0.04999999	          0.10265205	          0.21768541	          0.04999999	          0.04999999	          0.24862262	          0.23518296	          0.35793575	          0.10582284	          0.04999999	          0.34316792	          0.04999999	          0.04999999	          0.34647692	          0.27723962	          0.27834009	          0.36094262	
          1.79064596	         -7.74660011	          1.98753606	          0.90281409	         -6.39814836	        -29.48582740	        -15.49566619	         27.18905006	        -19.79003923	          0.95291178	          0.08779750	          0.07284511	          0.08616749	          0.18272802	          0.04999999	          0.04999999	          0.21285487	          0.19741569	          0.30045601	          0.10938710	          0.04999999	          0.33456133	          0.04999999	          0.04999999	          0.39546140	          0.30016270	          0.32250331	          0.30298002	
          1.80212446	         -7.68198127	          2.00210373	          0.90349678	         -4.94445168	        -32.77120911	        -15.70396445	         26.44035268	        -20.36392423	          1.90914834	          0.10584021	          0.12563644	          0.07233013	          0.15338432	          0.04999999	          0.04999999	          0.17867320	          0.16571335	          0.39246482	          0.11295816	          0.07096076	          0.30059188	          0.04999999	          0.04999999	          0.39627493	          0.32214375	          0.36118718	          0.25432544	
          1.81360296	         -7.64407095	          2.01626294	          0.90476163	         -3.53472799	        -35.51855386	        -15.36408677	         25.57331691	        -20.60348296	          2.62176359	          0.11797468	          0.18009197	          0.06071487	          0.12933168	          0.04999999	          0.04999999	          0.14998065	          0.13910198	          0.40007135	          0.11718683	          0.05956540	          0.26315126	          0.04999999	          0.04999999	          0.37633291	          0.34385456	          0.39509516	          0.21348415	
          1.82508146	         -7.62944412	          2.03004651	          0.90655527	         -2.16527417	        -37.76392094	        -14.73312854	         24.61504168	        -20.56507855	          3.09251454	          0.12019436	          0.22408400	          0.05096487	          0.11810593	          0.04999999	          0.04999999	          0.12589575	          0.11676405	          0.38288889	          0.12188778	          0.04999999	          0.23289226	          0.04999999	          0.04999999	          0.34154158	          0.36435451	          0.42248928	          0.17920142	
          1.83655996	         -7.63454077	          2.04348999	          0.90876960	         -0.82805783	        -39.56649207	        -13.91502001	         23.58732548	        -20.29958986	          3.34649900	          0.10089274	          0.27374529	          0.04999999	          0.11060008	          0.04999999	          0.04999999	          0.10567856	          0.09801329	          0.36149957	          0.12684676	          0.04999999	          0.21376526	          0.04999999	          0.04999999	          0.29947580	          0.38360537	          0.44363877	          0.15042405	
          1.84803846	         -7.65659689	          2.05662238	          0.91127824	          0.48663870	        -40.98616377	        -12.97214796	         22.51390949	        -19.86049436	          3.41724413	          0.08469070	          0.32291018	          0.04999999	          0.10524863	          0.04999999	          0.04999999	          0.08870798	          0.08227365	          0.33594565	          0.13139127	          0.04999999	          0.20389667	          0.04999999	          0.04999999	          0.25517967	          0.40164459	          0.45903408	          0.12626794	
          1.85951696	         -7.69340229	          2.06946584	          0.91395803	          1.79041805	        -42.08305441	        -11.92966699	         21.41777046	        -19.29868240	          3.34032556	          0.07109050	          0.37390290	          0.04999999	          0.10057033	          0.04999999	          0.04999999	          0.07446266	          0.06906159	          0.31347642	          0.13515128	          0.04999999	          0.19806321	          0.04999999	          0.04999999	          0.21420120	          0.41827700	          0.46941038	          0.10599098	
          1.87099546	         -7.74303063	          2.08203765	          0.91670009	          3.09667237	        -42.91996382	        -10.81522367	         20.31829046	        -18.65774020	          3.15037461	          0.05967431	          0.42386988	          0.04999999	          0.09618892	          0.04999999	          0.04999999	          0.06250494	          0.05797122	          0.28678380	          0.13788921	          0.04999999	          0.19246063	          0.04999999	          0.04999999	          0.17980332	          0.43318764	          0.47551157	          0.08897023	
          1.88247396	         -7.80395851	          2.09435150	          0.91941458	          4.41915197	        -43.55716600	         -9.67509557	         19.22962460	        -17.97076419	          2.87927112	          0.05009140	          0.47122670	          0.04999999	          0.09230727	          0.04999999	          0.04999999	          0.05278755	          0.04999999	          0.26399114	          0.13940263	          0.04999999	          0.18574000	          0.04999999	          0.04999999	          0.15092929	          0.44608942	          0.47800900	          0.07468279	
          1.89395246	         -7.87500151	          2.10641883	          0.92203007	          5.77080135	        -44.04952355	         -8.58580689	         18.16234942	        -17.26372270	          2.55604885	          0.04999999	          0.51703101	          0.04999999	          0.08898516	          0.04999999	          0.04999999	          0.04999999	          0.04999999	          0.27093385	          0.13966102	          0.04999999	          0.17769945	          0.04999999	          0.04999999	          0.12669205	          0.45686368	          0.47750625	          0.06268973	
